<svg width="1920" height="813" viewBox="0 0 1920 813" fill="none" xmlns="http://www.w3.org/2000/svg">
<path d="M1038.96 183.862C1382.18 -9.89183 1769.33 50.1772 1920 104.431V437.751C1786.25 366.441 1407.18 270.604 960.915 457.731C514.651 644.857 133.028 654.929 -2 636.573V267.192C72.2178 350.522 609.937 426.055 1038.96 183.862Z" fill="url(#paint0_linear)" fill-opacity="0.4"/>
<path d="M1361.89 182.461C831.347 -83.6234 232.904 -1.12994 0 73.3774V531.129C206.751 433.199 792.711 301.584 1482.54 558.568C2172.37 815.551 2762.28 829.382 2971 804.174V296.9C2856.28 411.337 2025.08 515.068 1361.89 182.461Z" fill="url(#paint1_linear)" fill-opacity="0.61"/>
<defs>
<linearGradient id="paint0_linear" x1="959" y1="51" x2="1022.94" y2="546.801" gradientUnits="userSpaceOnUse">
<stop stop-color="#A525BA"/>
<stop offset="1" stop-color="#7625BA" stop-opacity="0"/>
</linearGradient>
<linearGradient id="paint1_linear" x1="1390.02" y1="-1.89984e-06" x2="1383.6" y2="681.213" gradientUnits="userSpaceOnUse">
<stop stop-color="#2534BA"/>
<stop offset="1" stop-color="#7625BA" stop-opacity="0"/>
</linearGradient>
</defs>
</svg>
