<svg width="1916" height="689" viewBox="0 0 1916 689" fill="none" xmlns="http://www.w3.org/2000/svg">
<g opacity="0.4">
<path d="M408.858 421.435C409.898 421.435 410.741 420.59 410.741 419.548C410.741 418.506 409.898 417.662 408.858 417.662C407.817 417.662 406.974 418.506 406.974 419.548C406.974 420.59 407.817 421.435 408.858 421.435Z" fill="#F919EE"/>
<path d="M351.727 612.962C353.576 612.962 355.075 611.46 355.075 609.608C355.075 607.755 353.576 606.253 351.727 606.253C349.878 606.253 348.378 607.755 348.378 609.608C348.378 611.46 349.878 612.962 351.727 612.962Z" fill="#3A30F2"/>
<path d="M828.978 381.224C830.827 381.224 832.326 379.722 832.326 377.87C832.326 376.017 830.827 374.516 828.978 374.516C827.129 374.516 825.63 376.017 825.63 377.87C825.63 379.722 827.129 381.224 828.978 381.224Z" fill="#3A30F2"/>
<path d="M316.265 377.889C318.114 377.889 319.613 376.387 319.613 374.535C319.613 372.682 318.114 371.181 316.265 371.181C314.416 371.181 312.916 372.682 312.916 374.535C312.916 376.387 314.416 377.889 316.265 377.889Z" fill="url(#paint0_radial)"/>
<path d="M626.29 573.036C627.33 573.036 628.173 572.191 628.173 571.149C628.173 570.107 627.33 569.263 626.29 569.263C625.25 569.263 624.406 570.107 624.406 571.149C624.406 572.191 625.25 573.036 626.29 573.036Z" fill="#3A30F2"/>
<path d="M704.69 534.598C705.73 534.598 706.573 533.753 706.573 532.711C706.573 531.669 705.73 530.824 704.69 530.824C703.65 530.824 702.807 531.669 702.807 532.711C702.807 533.753 703.65 534.598 704.69 534.598Z" fill="#28A9F7"/>
<path d="M759.804 590.893C760.845 590.893 761.688 590.048 761.688 589.006C761.688 587.964 760.845 587.12 759.804 587.12C758.764 587.12 757.921 587.964 757.921 589.006C757.921 590.048 758.764 590.893 759.804 590.893Z" fill="#F919EE"/>
<path d="M215.701 339.965C216.741 339.965 217.584 339.12 217.584 338.078C217.584 337.036 216.741 336.191 215.701 336.191C214.661 336.191 213.817 337.036 213.817 338.078C213.817 339.12 214.661 339.965 215.701 339.965Z" fill="#F3F3FF"/>
<path d="M262.444 102.796C263.485 102.796 264.328 101.951 264.328 100.909C264.328 99.8672 263.485 99.0225 262.444 99.0225C261.404 99.0225 260.561 99.8672 260.561 100.909C260.561 101.951 261.404 102.796 262.444 102.796Z" fill="#F3F3FF"/>
<path d="M874.313 493.034C875.353 493.034 876.197 492.189 876.197 491.147C876.197 490.105 875.353 489.26 874.313 489.26C873.273 489.26 872.43 490.105 872.43 491.147C872.43 492.189 873.273 493.034 874.313 493.034Z" fill="#F3F3FF"/>
<path d="M868.34 244.582C869.38 244.582 870.223 243.738 870.223 242.696C870.223 241.654 869.38 240.809 868.34 240.809C867.299 240.809 866.456 241.654 866.456 242.696C866.456 243.738 867.299 244.582 868.34 244.582Z" fill="#F3F3FF"/>
<path d="M675.069 616.354C676.109 616.354 676.952 615.509 676.952 614.467C676.952 613.425 676.109 612.581 675.069 612.581C674.028 612.581 673.185 613.425 673.185 614.467C673.185 615.509 674.028 616.354 675.069 616.354Z" fill="#F3F3FF"/>
<path d="M262.444 423.322C263.485 423.322 264.328 422.477 264.328 421.435C264.328 420.393 263.485 419.548 262.444 419.548C261.404 419.548 260.561 420.393 260.561 421.435C260.561 422.477 261.404 423.322 262.444 423.322Z" fill="#F919EE"/>
<path d="M838.376 225.182C839.416 225.182 840.259 224.337 840.259 223.295C840.259 222.253 839.416 221.409 838.376 221.409C837.336 221.409 836.492 222.253 836.492 223.295C836.492 224.337 837.336 225.182 838.376 225.182Z" fill="#28A9F7"/>
<path d="M671.93 689C673.663 689 675.069 687.593 675.069 685.856C675.069 684.119 673.663 682.711 671.93 682.711C670.196 682.711 668.791 684.119 668.791 685.856C668.791 687.593 670.196 689 671.93 689Z" fill="url(#paint1_radial)"/>
<path d="M353.61 476.739C354.65 476.739 355.494 475.895 355.494 474.853C355.494 473.811 354.65 472.966 353.61 472.966C352.57 472.966 351.727 473.811 351.727 474.853C351.727 475.895 352.57 476.739 353.61 476.739Z" fill="#F3F3FF"/>
<path d="M695.216 199.912C696.256 199.912 697.099 199.067 697.099 198.025C697.099 196.983 696.256 196.139 695.216 196.139C694.176 196.139 693.332 196.983 693.332 198.025C693.332 199.067 694.176 199.912 695.216 199.912Z" fill="#F3F3FF"/>
<path d="M743.595 146.246C744.635 146.246 745.479 145.402 745.479 144.36C745.479 143.318 744.635 142.473 743.595 142.473C742.555 142.473 741.712 143.318 741.712 144.36C741.712 145.402 742.555 146.246 743.595 146.246Z" fill="#F919EE"/>
<path d="M333.083 247.898C334.123 247.898 334.966 247.054 334.966 246.012C334.966 244.97 334.123 244.125 333.083 244.125C332.043 244.125 331.199 244.97 331.199 246.012C331.199 247.054 332.043 247.898 333.083 247.898Z" fill="#F919EE"/>
<path d="M419.264 227.069C420.304 227.069 421.147 226.224 421.147 225.182C421.147 224.14 420.304 223.295 419.264 223.295C418.224 223.295 417.381 224.14 417.381 225.182C417.381 226.224 418.224 227.069 419.264 227.069Z" fill="#3A30F2"/>
<path d="M397.196 527.89C397.196 527.89 398.033 528.709 399.041 528.747C399.536 531.11 400.906 532.73 400.906 532.73C400.906 532.73 401.705 530.767 401.438 528.366C402.389 528.023 402.941 526.994 402.941 526.994C402.941 526.994 402.104 526.174 401.096 526.136C400.601 523.773 399.231 522.153 399.231 522.153C399.231 522.153 398.432 524.116 398.699 526.517C397.747 526.86 397.196 527.89 397.196 527.89Z" fill="url(#paint2_radial)"/>
<path d="M784.708 467.096C784.708 467.096 785.545 467.916 786.553 467.954C787.048 470.317 788.417 471.937 788.417 471.937C788.417 471.937 789.216 469.974 788.95 467.573C789.901 467.23 790.453 466.2 790.453 466.2C790.453 466.2 789.616 465.381 788.608 465.343C788.113 462.98 786.743 461.36 786.743 461.36C786.743 461.36 785.944 463.323 786.211 465.724C785.24 466.067 784.708 467.096 784.708 467.096Z" fill="url(#paint3_radial)"/>
<path d="M378.361 262.782C378.361 262.782 379.198 263.602 380.207 263.64C380.701 266.003 382.071 267.623 382.071 267.623C382.071 267.623 382.87 265.66 382.604 263.259C383.555 262.916 384.107 261.886 384.107 261.886C384.107 261.886 383.27 261.067 382.261 261.029C381.767 258.666 380.397 257.046 380.397 257.046C380.397 257.046 379.598 259.009 379.864 261.41C378.894 261.753 378.361 262.782 378.361 262.782Z" fill="url(#paint4_radial)"/>
<path d="M781.835 367.274C781.835 367.274 782.672 368.093 783.68 368.131C784.175 370.495 785.544 372.114 785.544 372.114C785.544 372.114 786.344 370.152 786.077 367.75C787.028 367.407 787.58 366.378 787.58 366.378C787.58 366.378 786.743 365.559 785.735 365.521C785.24 363.157 783.87 361.538 783.87 361.538C783.87 361.538 783.071 363.501 783.338 365.902C782.367 366.245 781.835 367.274 781.835 367.274Z" fill="url(#paint5_radial)"/>
<path d="M847 587C870.748 587 890 567.748 890 544C890 520.252 870.748 501 847 501C823.252 501 804 520.252 804 544C804 567.748 823.252 587 847 587Z" fill="url(#paint6_linear)"/>
<path d="M281.031 500.408C293.02 500.408 302.738 490.673 302.738 478.664C302.738 466.655 293.02 456.919 281.031 456.919C269.043 456.919 259.324 466.655 259.324 478.664C259.324 490.673 269.043 500.408 281.031 500.408Z" fill="url(#paint7_linear)"/>
<path opacity="0.7" d="M738.934 475.805C743.988 475.805 748.085 471.701 748.085 466.639C748.085 461.576 743.988 457.472 738.934 457.472C733.88 457.472 729.783 461.576 729.783 466.639C729.783 471.701 733.88 475.805 738.934 475.805Z" fill="url(#paint8_linear)"/>
<path opacity="0.7" d="M501.584 40.5734C506.637 40.5734 510.734 36.4694 510.734 31.4068C510.734 26.3443 506.637 22.2402 501.584 22.2402C496.53 22.2402 492.433 26.3443 492.433 31.4068C492.433 36.4694 496.53 40.5734 501.584 40.5734Z" fill="url(#paint9_linear)"/>
<path d="M467.339 271.358C468.379 271.358 469.223 270.513 469.223 269.471C469.223 268.429 468.379 267.584 467.339 267.584C466.299 267.584 465.456 268.429 465.456 269.471C465.456 270.513 466.299 271.358 467.339 271.358Z" fill="#F919EE"/>
<path d="M524.489 82.7472C526.338 82.7472 527.837 81.2456 527.837 79.3932C527.837 77.5407 526.338 76.0391 524.489 76.0391C522.64 76.0391 521.141 77.5407 521.141 79.3932C521.141 81.2456 522.64 82.7472 524.489 82.7472Z" fill="#3A30F2"/>
<path d="M47.2381 314.485C49.0873 314.485 50.5864 312.983 50.5864 311.13C50.5864 309.278 49.0873 307.776 47.2381 307.776C45.3888 307.776 43.8897 309.278 43.8897 311.13C43.8897 312.983 45.3888 314.485 47.2381 314.485Z" fill="#3A30F2"/>
<path d="M559.951 317.839C561.8 317.839 563.299 316.337 563.299 314.484C563.299 312.632 561.8 311.13 559.951 311.13C558.102 311.13 556.603 312.632 556.603 314.484C556.603 316.337 558.102 317.839 559.951 317.839Z" fill="url(#paint10_radial)"/>
<path d="M249.926 119.756C250.966 119.756 251.81 118.912 251.81 117.87C251.81 116.828 250.966 115.983 249.926 115.983C248.886 115.983 248.043 116.828 248.043 117.87C248.043 118.912 248.886 119.756 249.926 119.756Z" fill="#3A30F2"/>
<path d="M171.526 158.176C172.566 158.176 173.409 157.332 173.409 156.29C173.409 155.248 172.566 154.403 171.526 154.403C170.486 154.403 169.642 155.248 169.642 156.29C169.642 157.332 170.486 158.176 171.526 158.176Z" fill="#28A9F7"/>
<path d="M116.393 101.9C117.433 101.9 118.276 101.055 118.276 100.013C118.276 98.9712 117.433 98.1265 116.393 98.1265C115.352 98.1265 114.509 98.9712 114.509 100.013C114.509 101.055 115.352 101.9 116.393 101.9Z" fill="#F919EE"/>
<path d="M660.515 352.809C661.555 352.809 662.398 351.964 662.398 350.922C662.398 349.88 661.555 349.036 660.515 349.036C659.475 349.036 658.632 349.88 658.632 350.922C658.632 351.964 659.475 352.809 660.515 352.809Z" fill="#F3F3FF"/>
<path d="M613.771 589.978C614.812 589.978 615.655 589.133 615.655 588.091C615.655 587.049 614.812 586.205 613.771 586.205C612.731 586.205 611.888 587.049 611.888 588.091C611.888 589.133 612.731 589.978 613.771 589.978Z" fill="#F3F3FF"/>
<path d="M1.88343 199.74C2.92363 199.74 3.76687 198.895 3.76687 197.853C3.76687 196.811 2.92363 195.967 1.88343 195.967C0.843242 195.967 0 196.811 0 197.853C0 198.895 0.843242 199.74 1.88343 199.74Z" fill="#F3F3FF"/>
<path d="M7.87617 448.191C8.91636 448.191 9.75961 447.347 9.75961 446.305C9.75961 445.263 8.91636 444.418 7.87617 444.418C6.83598 444.418 5.99274 445.263 5.99274 446.305C5.99274 447.347 6.83598 448.191 7.87617 448.191Z" fill="#F3F3FF"/>
<path d="M201.147 76.4389C202.187 76.4389 203.03 75.5942 203.03 74.5522C203.03 73.5102 202.187 72.6655 201.147 72.6655C200.107 72.6655 199.264 73.5102 199.264 74.5522C199.264 75.5942 200.107 76.4389 201.147 76.4389Z" fill="#F3F3FF"/>
<path d="M613.771 269.471C614.812 269.471 615.655 268.626 615.655 267.584C615.655 266.542 614.812 265.698 613.771 265.698C612.731 265.698 611.888 266.542 611.888 267.584C611.888 268.626 612.731 269.471 613.771 269.471Z" fill="#F919EE"/>
<path d="M37.84 467.611C38.8802 467.611 39.7234 466.766 39.7234 465.724C39.7234 464.682 38.8802 463.837 37.84 463.837C36.7998 463.837 35.9565 464.682 35.9565 465.724C35.9565 466.766 36.7998 467.611 37.84 467.611Z" fill="#28A9F7"/>
<path d="M204.286 6.28893C206.02 6.28893 207.425 4.88111 207.425 3.14447C207.425 1.40783 206.02 0 204.286 0C202.553 0 201.147 1.40783 201.147 3.14447C201.147 4.88111 202.553 6.28893 204.286 6.28893Z" fill="url(#paint11_radial)"/>
<path d="M522.606 216.034C523.646 216.034 524.489 215.189 524.489 214.147C524.489 213.105 523.646 212.261 522.606 212.261C521.565 212.261 520.722 213.105 520.722 214.147C520.722 215.189 521.565 216.034 522.606 216.034Z" fill="#F3F3FF"/>
<path d="M181 492.862C182.04 492.862 182.883 492.017 182.883 490.975C182.883 489.933 182.04 489.088 181 489.088C179.96 489.088 179.117 489.933 179.117 490.975C179.117 492.017 179.96 492.862 181 492.862Z" fill="#F3F3FF"/>
<path d="M132.621 546.527C133.661 546.527 134.504 545.683 134.504 544.641C134.504 543.599 133.661 542.754 132.621 542.754C131.58 542.754 130.737 543.599 130.737 544.641C130.737 545.683 131.58 546.527 132.621 546.527Z" fill="#F919EE"/>
<path d="M543.114 444.875C544.154 444.875 544.998 444.03 544.998 442.988C544.998 441.946 544.154 441.102 543.114 441.102C542.074 441.102 541.231 441.946 541.231 442.988C541.231 444.03 542.074 444.875 543.114 444.875Z" fill="#F919EE"/>
<path d="M456.933 465.724C457.973 465.724 458.816 464.879 458.816 463.837C458.816 462.795 457.973 461.95 456.933 461.95C455.892 461.95 455.049 462.795 455.049 463.837C455.049 464.879 455.892 465.724 456.933 465.724Z" fill="#3A30F2"/>
<path d="M479.001 161.13C479.001 161.13 478.164 160.311 477.156 160.273C476.661 157.909 475.291 156.29 475.291 156.29C475.291 156.29 474.492 158.252 474.759 160.654C473.807 160.997 473.256 162.026 473.256 162.026C473.256 162.026 474.093 162.845 475.101 162.883C475.596 165.246 476.966 166.866 476.966 166.866C476.966 166.866 477.765 164.903 477.498 162.502C478.469 162.159 479.001 161.13 479.001 161.13Z" fill="url(#paint12_radial)"/>
<path d="M91.5083 221.904C91.5083 221.904 90.6712 221.085 89.6629 221.046C89.1683 218.683 87.7985 217.063 87.7985 217.063C87.7985 217.063 86.9995 219.026 87.2658 221.428C86.3146 221.771 85.7629 222.8 85.7629 222.8C85.7629 222.8 86.6 223.619 87.6083 223.657C88.1029 226.02 89.4727 227.64 89.4727 227.64C89.4727 227.64 90.2717 225.677 90.0054 223.276C90.9566 222.933 91.5083 221.904 91.5083 221.904Z" fill="url(#paint13_radial)"/>
<path d="M497.855 426.218C497.855 426.218 497.018 425.398 496.009 425.36C495.515 422.997 494.145 421.377 494.145 421.377C494.145 421.377 493.346 423.34 493.612 425.741C492.661 426.084 492.109 427.113 492.109 427.113C492.109 427.113 492.946 427.933 493.955 427.971C494.449 430.334 495.819 431.954 495.819 431.954C495.819 431.954 496.618 429.991 496.352 427.59C497.303 427.247 497.855 426.218 497.855 426.218Z" fill="url(#paint14_radial)"/>
<path d="M94.3809 321.726C94.3809 321.726 93.5438 320.907 92.5355 320.869C92.0409 318.506 90.6711 316.886 90.6711 316.886C90.6711 316.886 89.8721 318.849 90.1384 321.25C89.1872 321.593 88.6355 322.622 88.6355 322.622C88.6355 322.622 89.4726 323.441 90.4809 323.48C90.9755 325.843 92.3453 327.463 92.3453 327.463C92.3453 327.463 93.1443 325.5 92.878 323.098C93.8292 322.755 94.3809 321.726 94.3809 321.726Z" fill="url(#paint15_radial)"/>
<path d="M29.0885 188.42C45.1432 188.42 58.158 175.383 58.158 159.301C58.158 143.218 45.1432 130.181 29.0885 130.181C13.0338 130.181 0.0188904 143.218 0.0188904 159.301C0.0188904 175.383 13.0338 188.42 29.0885 188.42Z" fill="url(#paint16_linear)"/>
<path d="M595.184 232.081C607.173 232.081 616.892 222.345 616.892 210.336C616.892 198.327 607.173 188.592 595.184 188.592C583.196 188.592 573.477 198.327 573.477 210.336C573.477 222.345 583.196 232.081 595.184 232.081Z" fill="url(#paint17_linear)"/>
<path opacity="0.7" d="M137.262 231.528C142.316 231.528 146.413 227.424 146.413 222.361C146.413 217.299 142.316 213.195 137.262 213.195C132.209 213.195 128.112 217.299 128.112 222.361C128.112 227.424 132.209 231.528 137.262 231.528Z" fill="url(#paint18_linear)"/>
<path opacity="0.7" d="M374.632 666.76C379.686 666.76 383.783 662.656 383.783 657.593C383.783 652.531 379.686 648.427 374.632 648.427C369.578 648.427 365.482 652.531 365.482 657.593C365.482 662.656 369.578 666.76 374.632 666.76Z" fill="url(#paint19_linear)"/>
<path d="M1237.84 421.435C1238.88 421.435 1239.72 420.59 1239.72 419.548C1239.72 418.506 1238.88 417.662 1237.84 417.662C1236.79 417.662 1235.95 418.506 1235.95 419.548C1235.95 420.59 1236.79 421.435 1237.84 421.435Z" fill="#F919EE"/>
<path d="M1180.7 612.962C1182.55 612.962 1184.05 611.46 1184.05 609.608C1184.05 607.755 1182.55 606.253 1180.7 606.253C1178.86 606.253 1177.36 607.755 1177.36 609.608C1177.36 611.46 1178.86 612.962 1180.7 612.962Z" fill="#3A30F2"/>
<path d="M1657.96 381.224C1659.8 381.224 1661.3 379.722 1661.3 377.87C1661.3 376.017 1659.8 374.516 1657.96 374.516C1656.11 374.516 1654.61 376.017 1654.61 377.87C1654.61 379.722 1656.11 381.224 1657.96 381.224Z" fill="#3A30F2"/>
<path d="M1145.24 377.889C1147.09 377.889 1148.59 376.387 1148.59 374.535C1148.59 372.682 1147.09 371.181 1145.24 371.181C1143.39 371.181 1141.89 372.682 1141.89 374.535C1141.89 376.387 1143.39 377.889 1145.24 377.889Z" fill="url(#paint20_radial)"/>
<path d="M1455.27 573.036C1456.31 573.036 1457.15 572.191 1457.15 571.149C1457.15 570.107 1456.31 569.263 1455.27 569.263C1454.23 569.263 1453.38 570.107 1453.38 571.149C1453.38 572.191 1454.23 573.036 1455.27 573.036Z" fill="#3A30F2"/>
<path d="M1533.67 534.598C1534.71 534.598 1535.55 533.753 1535.55 532.711C1535.55 531.669 1534.71 530.824 1533.67 530.824C1532.63 530.824 1531.78 531.669 1531.78 532.711C1531.78 533.753 1532.63 534.598 1533.67 534.598Z" fill="#28A9F7"/>
<path d="M1588.78 590.893C1589.82 590.893 1590.67 590.048 1590.67 589.006C1590.67 587.964 1589.82 587.12 1588.78 587.12C1587.74 587.12 1586.9 587.964 1586.9 589.006C1586.9 590.048 1587.74 590.893 1588.78 590.893Z" fill="#F919EE"/>
<path d="M1044.68 339.965C1045.72 339.965 1046.56 339.12 1046.56 338.078C1046.56 337.036 1045.72 336.191 1044.68 336.191C1043.64 336.191 1042.8 337.036 1042.8 338.078C1042.8 339.12 1043.64 339.965 1044.68 339.965Z" fill="#F3F3FF"/>
<path d="M1091.42 102.796C1092.46 102.796 1093.31 101.951 1093.31 100.909C1093.31 99.8672 1092.46 99.0225 1091.42 99.0225C1090.38 99.0225 1089.54 99.8672 1089.54 100.909C1089.54 101.951 1090.38 102.796 1091.42 102.796Z" fill="#F3F3FF"/>
<path d="M1703.31 493.034C1704.35 493.034 1705.19 492.189 1705.19 491.147C1705.19 490.105 1704.35 489.26 1703.31 489.26C1702.27 489.26 1701.43 490.105 1701.43 491.147C1701.43 492.189 1702.27 493.034 1703.31 493.034Z" fill="#F3F3FF"/>
<path d="M1697.32 244.582C1698.36 244.582 1699.2 243.738 1699.2 242.696C1699.2 241.654 1698.36 240.809 1697.32 240.809C1696.28 240.809 1695.43 241.654 1695.43 242.696C1695.43 243.738 1696.28 244.582 1697.32 244.582Z" fill="#F3F3FF"/>
<path d="M1504.05 616.354C1505.09 616.354 1505.93 615.509 1505.93 614.467C1505.93 613.425 1505.09 612.581 1504.05 612.581C1503.01 612.581 1502.16 613.425 1502.16 614.467C1502.16 615.509 1503.01 616.354 1504.05 616.354Z" fill="#F3F3FF"/>
<path d="M1091.42 423.322C1092.46 423.322 1093.31 422.477 1093.31 421.435C1093.31 420.393 1092.46 419.548 1091.42 419.548C1090.38 419.548 1089.54 420.393 1089.54 421.435C1089.54 422.477 1090.38 423.322 1091.42 423.322Z" fill="#F919EE"/>
<path d="M1667.35 225.182C1668.39 225.182 1669.24 224.337 1669.24 223.295C1669.24 222.253 1668.39 221.409 1667.35 221.409C1666.31 221.409 1665.47 222.253 1665.47 223.295C1665.47 224.337 1666.31 225.182 1667.35 225.182Z" fill="#28A9F7"/>
<path d="M1500.91 689C1502.64 689 1504.05 687.593 1504.05 685.856C1504.05 684.119 1502.64 682.711 1500.91 682.711C1499.17 682.711 1497.77 684.119 1497.77 685.856C1497.77 687.593 1499.17 689 1500.91 689Z" fill="url(#paint21_radial)"/>
<path d="M1182.59 476.739C1183.63 476.739 1184.47 475.895 1184.47 474.853C1184.47 473.811 1183.63 472.966 1182.59 472.966C1181.55 472.966 1180.7 473.811 1180.7 474.853C1180.7 475.895 1181.55 476.739 1182.59 476.739Z" fill="#F3F3FF"/>
<path d="M1524.19 199.912C1525.23 199.912 1526.08 199.067 1526.08 198.025C1526.08 196.983 1525.23 196.139 1524.19 196.139C1523.15 196.139 1522.31 196.983 1522.31 198.025C1522.31 199.067 1523.15 199.912 1524.19 199.912Z" fill="#F3F3FF"/>
<path d="M1572.57 146.246C1573.61 146.246 1574.46 145.402 1574.46 144.36C1574.46 143.318 1573.61 142.473 1572.57 142.473C1571.53 142.473 1570.69 143.318 1570.69 144.36C1570.69 145.402 1571.53 146.246 1572.57 146.246Z" fill="#F919EE"/>
<path d="M1162.06 247.898C1163.1 247.898 1163.94 247.054 1163.94 246.012C1163.94 244.97 1163.1 244.125 1162.06 244.125C1161.02 244.125 1160.18 244.97 1160.18 246.012C1160.18 247.054 1161.02 247.898 1162.06 247.898Z" fill="#F919EE"/>
<path d="M1248.26 227.069C1249.3 227.069 1250.14 226.224 1250.14 225.182C1250.14 224.14 1249.3 223.295 1248.26 223.295C1247.22 223.295 1246.38 224.14 1246.38 225.182C1246.38 226.224 1247.22 227.069 1248.26 227.069Z" fill="#3A30F2"/>
<path d="M1226.17 527.89C1226.17 527.89 1227.01 528.709 1228.02 528.747C1228.51 531.11 1229.88 532.73 1229.88 532.73C1229.88 532.73 1230.68 530.767 1230.42 528.366C1231.37 528.023 1231.92 526.994 1231.92 526.994C1231.92 526.994 1231.08 526.174 1230.07 526.136C1229.58 523.773 1228.21 522.153 1228.21 522.153C1228.21 522.153 1227.41 524.116 1227.68 526.517C1226.72 526.86 1226.17 527.89 1226.17 527.89Z" fill="url(#paint22_radial)"/>
<path d="M1613.69 467.096C1613.69 467.096 1614.52 467.916 1615.53 467.954C1616.03 470.317 1617.39 471.937 1617.39 471.937C1617.39 471.937 1618.19 469.974 1617.93 467.573C1618.88 467.23 1619.43 466.2 1619.43 466.2C1619.43 466.2 1618.59 465.381 1617.59 465.343C1617.09 462.98 1615.72 461.36 1615.72 461.36C1615.72 461.36 1614.92 463.323 1615.19 465.724C1614.24 466.067 1613.69 467.096 1613.69 467.096Z" fill="url(#paint23_radial)"/>
<path d="M1207.34 262.782C1207.34 262.782 1208.18 263.602 1209.18 263.64C1209.68 266.003 1211.05 267.623 1211.05 267.623C1211.05 267.623 1211.85 265.66 1211.58 263.259C1212.53 262.916 1213.08 261.886 1213.08 261.886C1213.08 261.886 1212.25 261.067 1211.24 261.029C1210.74 258.666 1209.37 257.046 1209.37 257.046C1209.37 257.046 1208.58 259.009 1208.84 261.41C1207.87 261.753 1207.34 262.782 1207.34 262.782Z" fill="url(#paint24_radial)"/>
<path d="M1610.81 367.274C1610.81 367.274 1611.65 368.093 1612.66 368.131C1613.15 370.495 1614.52 372.114 1614.52 372.114C1614.52 372.114 1615.32 370.152 1615.05 367.75C1616.01 367.407 1616.56 366.378 1616.56 366.378C1616.56 366.378 1615.72 365.559 1614.71 365.521C1614.22 363.157 1612.85 361.538 1612.85 361.538C1612.85 361.538 1612.05 363.501 1612.32 365.902C1611.36 366.245 1610.81 367.274 1610.81 367.274Z" fill="url(#paint25_radial)"/>
<path d="M1676.1 558.819C1692.16 558.819 1705.17 545.782 1705.17 529.7C1705.17 513.617 1692.16 500.58 1676.1 500.58C1660.05 500.58 1647.04 513.617 1647.04 529.7C1647.04 545.782 1660.05 558.819 1676.1 558.819Z" fill="url(#paint26_linear)"/>
<path d="M1110.01 500.408C1122 500.408 1131.72 490.673 1131.72 478.664C1131.72 466.655 1122 456.919 1110.01 456.919C1098.02 456.919 1088.3 466.655 1088.3 478.664C1088.3 490.673 1098.02 500.408 1110.01 500.408Z" fill="url(#paint27_linear)"/>
<path opacity="0.7" d="M1567.91 475.805C1572.97 475.805 1577.06 471.701 1577.06 466.639C1577.06 461.576 1572.97 457.472 1567.91 457.472C1562.86 457.472 1558.76 461.576 1558.76 466.639C1558.76 471.701 1562.86 475.805 1567.91 475.805Z" fill="url(#paint28_linear)"/>
<path opacity="0.7" d="M1330.56 40.5734C1335.61 40.5734 1339.71 36.4694 1339.71 31.4068C1339.71 26.3443 1335.61 22.2402 1330.56 22.2402C1325.51 22.2402 1321.41 26.3443 1321.41 31.4068C1321.41 36.4694 1325.51 40.5734 1330.56 40.5734Z" fill="url(#paint29_linear)"/>
<path d="M1452.64 421.435C1453.68 421.435 1454.53 420.59 1454.53 419.548C1454.53 418.506 1453.68 417.662 1452.64 417.662C1451.6 417.662 1450.76 418.506 1450.76 419.548C1450.76 420.59 1451.6 421.435 1452.64 421.435Z" fill="#F919EE"/>
<path d="M1395.51 612.962C1397.36 612.962 1398.86 611.46 1398.86 609.608C1398.86 607.755 1397.36 606.253 1395.51 606.253C1393.66 606.253 1392.16 607.755 1392.16 609.608C1392.16 611.46 1393.66 612.962 1395.51 612.962Z" fill="#3A30F2"/>
<path d="M1872.76 381.224C1874.61 381.224 1876.11 379.722 1876.11 377.87C1876.11 376.017 1874.61 374.516 1872.76 374.516C1870.91 374.516 1869.41 376.017 1869.41 377.87C1869.41 379.722 1870.91 381.224 1872.76 381.224Z" fill="#3A30F2"/>
<path d="M1360.03 377.889C1361.88 377.889 1363.38 376.387 1363.38 374.535C1363.38 372.682 1361.88 371.181 1360.03 371.181C1358.18 371.181 1356.68 372.682 1356.68 374.535C1356.68 376.387 1358.18 377.889 1360.03 377.889Z" fill="url(#paint30_radial)"/>
<path d="M1670.07 573.036C1671.11 573.036 1671.96 572.191 1671.96 571.149C1671.96 570.107 1671.11 569.263 1670.07 569.263C1669.03 569.263 1668.19 570.107 1668.19 571.149C1668.19 572.191 1669.03 573.036 1670.07 573.036Z" fill="#3A30F2"/>
<path d="M1748.46 534.598C1749.5 534.598 1750.34 533.753 1750.34 532.711C1750.34 531.669 1749.5 530.824 1748.46 530.824C1747.42 530.824 1746.57 531.669 1746.57 532.711C1746.57 533.753 1747.42 534.598 1748.46 534.598Z" fill="#28A9F7"/>
<path d="M1803.59 590.893C1804.63 590.893 1805.47 590.048 1805.47 589.006C1805.47 587.964 1804.63 587.12 1803.59 587.12C1802.55 587.12 1801.71 587.964 1801.71 589.006C1801.71 590.048 1802.55 590.893 1803.59 590.893Z" fill="#F919EE"/>
<path d="M1259.49 339.965C1260.53 339.965 1261.37 339.12 1261.37 338.078C1261.37 337.036 1260.53 336.191 1259.49 336.191C1258.45 336.191 1257.6 337.036 1257.6 338.078C1257.6 339.12 1258.45 339.965 1259.49 339.965Z" fill="#F3F3FF"/>
<path d="M1306.23 102.796C1307.27 102.796 1308.11 101.951 1308.11 100.909C1308.11 99.8672 1307.27 99.0225 1306.23 99.0225C1305.19 99.0225 1304.35 99.8672 1304.35 100.909C1304.35 101.951 1305.19 102.796 1306.23 102.796Z" fill="#F3F3FF"/>
<path d="M1912.12 244.582C1913.16 244.582 1914.01 243.738 1914.01 242.696C1914.01 241.654 1913.16 240.809 1912.12 240.809C1911.08 240.809 1910.24 241.654 1910.24 242.696C1910.24 243.738 1911.08 244.582 1912.12 244.582Z" fill="#F3F3FF"/>
<path d="M1718.85 616.354C1719.89 616.354 1720.74 615.509 1720.74 614.467C1720.74 613.425 1719.89 612.581 1718.85 612.581C1717.81 612.581 1716.97 613.425 1716.97 614.467C1716.97 615.509 1717.81 616.354 1718.85 616.354Z" fill="#F3F3FF"/>
<path d="M1306.23 423.322C1307.27 423.322 1308.11 422.477 1308.11 421.435C1308.11 420.393 1307.27 419.548 1306.23 419.548C1305.19 419.548 1304.35 420.393 1304.35 421.435C1304.35 422.477 1305.19 423.322 1306.23 423.322Z" fill="#F919EE"/>
<path d="M1882.16 225.182C1883.2 225.182 1884.04 224.337 1884.04 223.295C1884.04 222.253 1883.2 221.409 1882.16 221.409C1881.12 221.409 1880.28 222.253 1880.28 223.295C1880.28 224.337 1881.12 225.182 1882.16 225.182Z" fill="#28A9F7"/>
<path d="M1715.71 689C1717.45 689 1718.85 687.593 1718.85 685.856C1718.85 684.119 1717.45 682.711 1715.71 682.711C1713.98 682.711 1712.58 684.119 1712.58 685.856C1712.58 687.593 1713.98 689 1715.71 689Z" fill="url(#paint31_radial)"/>
<path d="M1397.39 476.739C1398.43 476.739 1399.28 475.895 1399.28 474.853C1399.28 473.811 1398.43 472.966 1397.39 472.966C1396.35 472.966 1395.51 473.811 1395.51 474.853C1395.51 475.895 1396.35 476.739 1397.39 476.739Z" fill="#F3F3FF"/>
<path d="M1739 199.912C1740.04 199.912 1740.88 199.067 1740.88 198.025C1740.88 196.983 1740.04 196.139 1739 196.139C1737.96 196.139 1737.12 196.983 1737.12 198.025C1737.12 199.067 1737.96 199.912 1739 199.912Z" fill="#F3F3FF"/>
<path d="M1787.38 146.246C1788.42 146.246 1789.26 145.402 1789.26 144.36C1789.26 143.318 1788.42 142.473 1787.38 142.473C1786.34 142.473 1785.5 143.318 1785.5 144.36C1785.5 145.402 1786.34 146.246 1787.38 146.246Z" fill="#F919EE"/>
<path d="M1376.87 247.898C1377.91 247.898 1378.75 247.054 1378.75 246.012C1378.75 244.97 1377.91 244.125 1376.87 244.125C1375.83 244.125 1374.98 244.97 1374.98 246.012C1374.98 247.054 1375.83 247.898 1376.87 247.898Z" fill="#F919EE"/>
<path d="M1463.05 227.069C1464.09 227.069 1464.93 226.224 1464.93 225.182C1464.93 224.14 1464.09 223.295 1463.05 223.295C1462.01 223.295 1461.17 224.14 1461.17 225.182C1461.17 226.224 1462.01 227.069 1463.05 227.069Z" fill="#3A30F2"/>
<path d="M1440.98 527.89C1440.98 527.89 1441.82 528.709 1442.83 528.747C1443.32 531.11 1444.69 532.73 1444.69 532.73C1444.69 532.73 1445.49 530.767 1445.22 528.366C1446.17 528.023 1446.73 526.994 1446.73 526.994C1446.73 526.994 1445.89 526.174 1444.88 526.136C1444.39 523.773 1443.02 522.153 1443.02 522.153C1443.02 522.153 1442.22 524.116 1442.48 526.517C1441.53 526.86 1440.98 527.89 1440.98 527.89Z" fill="url(#paint32_radial)"/>
<path d="M1828.49 467.096C1828.49 467.096 1829.33 467.916 1830.34 467.954C1830.83 470.317 1832.2 471.937 1832.2 471.937C1832.2 471.937 1833 469.974 1832.73 467.573C1833.69 467.23 1834.24 466.2 1834.24 466.2C1834.24 466.2 1833.4 465.381 1832.39 465.343C1831.9 462.98 1830.53 461.36 1830.53 461.36C1830.53 461.36 1829.73 463.323 1829.99 465.724C1829.02 466.067 1828.49 467.096 1828.49 467.096Z" fill="url(#paint33_radial)"/>
<path d="M1422.15 262.782C1422.15 262.782 1422.98 263.602 1423.99 263.64C1424.49 266.003 1425.86 267.623 1425.86 267.623C1425.86 267.623 1426.65 265.66 1426.39 263.259C1427.34 262.916 1427.89 261.886 1427.89 261.886C1427.89 261.886 1427.05 261.067 1426.05 261.029C1425.55 258.666 1424.18 257.046 1424.18 257.046C1424.18 257.046 1423.38 259.009 1423.65 261.41C1422.68 261.753 1422.15 262.782 1422.15 262.782Z" fill="url(#paint34_radial)"/>
<path d="M1825.62 367.274C1825.62 367.274 1826.46 368.093 1827.46 368.131C1827.96 370.495 1829.33 372.114 1829.33 372.114C1829.33 372.114 1830.13 370.152 1829.86 367.75C1830.81 367.407 1831.36 366.378 1831.36 366.378C1831.36 366.378 1830.53 365.559 1829.52 365.521C1829.02 363.157 1827.65 361.538 1827.65 361.538C1827.65 361.538 1826.86 363.501 1827.12 365.902C1826.15 366.245 1825.62 367.274 1825.62 367.274Z" fill="url(#paint35_radial)"/>
<path opacity="0.7" d="M1782.72 475.805C1787.77 475.805 1791.87 471.701 1791.87 466.639C1791.87 461.576 1787.77 457.472 1782.72 457.472C1777.66 457.472 1773.57 461.576 1773.57 466.639C1773.57 471.701 1777.66 475.805 1782.72 475.805Z" fill="url(#paint36_linear)"/>
<path opacity="0.7" d="M1545.35 40.5734C1550.4 40.5734 1554.5 36.4694 1554.5 31.4068C1554.5 26.3443 1550.4 22.2402 1545.35 22.2402C1540.29 22.2402 1536.2 26.3443 1536.2 31.4068C1536.2 36.4694 1540.29 40.5734 1545.35 40.5734Z" fill="url(#paint37_linear)"/>
<path d="M1296.32 271.358C1297.36 271.358 1298.2 270.513 1298.2 269.471C1298.2 268.429 1297.36 267.584 1296.32 267.584C1295.28 267.584 1294.43 268.429 1294.43 269.471C1294.43 270.513 1295.28 271.358 1296.32 271.358Z" fill="#F919EE"/>
<path d="M1353.47 82.7472C1355.32 82.7472 1356.82 81.2456 1356.82 79.3932C1356.82 77.5407 1355.32 76.0391 1353.47 76.0391C1351.62 76.0391 1350.12 77.5407 1350.12 79.3932C1350.12 81.2456 1351.62 82.7472 1353.47 82.7472Z" fill="#3A30F2"/>
<path d="M876.216 314.485C878.065 314.485 879.564 312.983 879.564 311.13C879.564 309.278 878.065 307.776 876.216 307.776C874.366 307.776 872.867 309.278 872.867 311.13C872.867 312.983 874.366 314.485 876.216 314.485Z" fill="#3A30F2"/>
<path d="M1388.93 317.839C1390.78 317.839 1392.28 316.337 1392.28 314.484C1392.28 312.632 1390.78 311.13 1388.93 311.13C1387.08 311.13 1385.58 312.632 1385.58 314.484C1385.58 316.337 1387.08 317.839 1388.93 317.839Z" fill="url(#paint38_radial)"/>
<path d="M1078.9 119.756C1079.94 119.756 1080.79 118.912 1080.79 117.87C1080.79 116.828 1079.94 115.983 1078.9 115.983C1077.86 115.983 1077.02 116.828 1077.02 117.87C1077.02 118.912 1077.86 119.756 1078.9 119.756Z" fill="#3A30F2"/>
<path d="M1000.5 158.176C1001.54 158.176 1002.39 157.332 1002.39 156.29C1002.39 155.248 1001.54 154.403 1000.5 154.403C999.463 154.403 998.62 155.248 998.62 156.29C998.62 157.332 999.463 158.176 1000.5 158.176Z" fill="#28A9F7"/>
<path d="M945.37 101.9C946.41 101.9 947.254 101.055 947.254 100.013C947.254 98.9712 946.41 98.1265 945.37 98.1265C944.33 98.1265 943.487 98.9712 943.487 100.013C943.487 101.055 944.33 101.9 945.37 101.9Z" fill="#F919EE"/>
<path d="M1489.49 352.809C1490.53 352.809 1491.38 351.964 1491.38 350.922C1491.38 349.88 1490.53 349.036 1489.49 349.036C1488.45 349.036 1487.61 349.88 1487.61 350.922C1487.61 351.964 1488.45 352.809 1489.49 352.809Z" fill="#F3F3FF"/>
<path d="M1442.75 589.978C1443.79 589.978 1444.63 589.133 1444.63 588.091C1444.63 587.049 1443.79 586.205 1442.75 586.205C1441.71 586.205 1440.87 587.049 1440.87 588.091C1440.87 589.133 1441.71 589.978 1442.75 589.978Z" fill="#F3F3FF"/>
<path d="M830.861 199.74C831.901 199.74 832.745 198.895 832.745 197.853C832.745 196.811 831.901 195.967 830.861 195.967C829.821 195.967 828.978 196.811 828.978 197.853C828.978 198.895 829.821 199.74 830.861 199.74Z" fill="#F3F3FF"/>
<path d="M836.854 448.191C837.894 448.191 838.737 447.347 838.737 446.305C838.737 445.263 837.894 444.418 836.854 444.418C835.814 444.418 834.97 445.263 834.97 446.305C834.97 447.347 835.814 448.191 836.854 448.191Z" fill="#F3F3FF"/>
<path d="M1030.12 76.4389C1031.16 76.4389 1032.01 75.5942 1032.01 74.5522C1032.01 73.5102 1031.16 72.6655 1030.12 72.6655C1029.08 72.6655 1028.24 73.5102 1028.24 74.5522C1028.24 75.5942 1029.08 76.4389 1030.12 76.4389Z" fill="#F3F3FF"/>
<path d="M1442.75 269.471C1443.79 269.471 1444.63 268.626 1444.63 267.584C1444.63 266.542 1443.79 265.698 1442.75 265.698C1441.71 265.698 1440.87 266.542 1440.87 267.584C1440.87 268.626 1441.71 269.471 1442.75 269.471Z" fill="#F919EE"/>
<path d="M866.818 467.611C867.858 467.611 868.701 466.766 868.701 465.724C868.701 464.682 867.858 463.837 866.818 463.837C865.777 463.837 864.934 464.682 864.934 465.724C864.934 466.766 865.777 467.611 866.818 467.611Z" fill="#28A9F7"/>
<path d="M1033.26 6.28893C1035 6.28893 1036.4 4.88111 1036.4 3.14447C1036.4 1.40783 1035 0 1033.26 0C1031.53 0 1030.12 1.40783 1030.12 3.14447C1030.12 4.88111 1031.53 6.28893 1033.26 6.28893Z" fill="url(#paint39_radial)"/>
<path d="M1351.58 216.034C1352.62 216.034 1353.47 215.189 1353.47 214.147C1353.47 213.105 1352.62 212.261 1351.58 212.261C1350.54 212.261 1349.7 213.105 1349.7 214.147C1349.7 215.189 1350.54 216.034 1351.58 216.034Z" fill="#F3F3FF"/>
<path d="M1009.98 492.862C1011.02 492.862 1011.86 492.017 1011.86 490.975C1011.86 489.933 1011.02 489.088 1009.98 489.088C1008.94 489.088 1008.09 489.933 1008.09 490.975C1008.09 492.017 1008.94 492.862 1009.98 492.862Z" fill="#F3F3FF"/>
<path d="M961.598 546.527C962.638 546.527 963.482 545.683 963.482 544.641C963.482 543.599 962.638 542.754 961.598 542.754C960.558 542.754 959.715 543.599 959.715 544.641C959.715 545.683 960.558 546.527 961.598 546.527Z" fill="#F919EE"/>
<path d="M1372.09 444.875C1373.13 444.875 1373.98 444.03 1373.98 442.988C1373.98 441.946 1373.13 441.102 1372.09 441.102C1371.05 441.102 1370.21 441.946 1370.21 442.988C1370.21 444.03 1371.05 444.875 1372.09 444.875Z" fill="#F919EE"/>
<path d="M1285.91 465.724C1286.95 465.724 1287.79 464.879 1287.79 463.837C1287.79 462.795 1286.95 461.95 1285.91 461.95C1284.87 461.95 1284.03 462.795 1284.03 463.837C1284.03 464.879 1284.87 465.724 1285.91 465.724Z" fill="#3A30F2"/>
<path d="M1307.98 161.13C1307.98 161.13 1307.14 160.311 1306.13 160.273C1305.64 157.909 1304.27 156.29 1304.27 156.29C1304.27 156.29 1303.47 158.252 1303.74 160.654C1302.79 160.997 1302.23 162.026 1302.23 162.026C1302.23 162.026 1303.07 162.845 1304.08 162.883C1304.57 165.246 1305.94 166.866 1305.94 166.866C1305.94 166.866 1306.74 164.903 1306.48 162.502C1307.45 162.159 1307.98 161.13 1307.98 161.13Z" fill="url(#paint40_radial)"/>
<path d="M920.486 221.904C920.486 221.904 919.649 221.085 918.641 221.046C918.146 218.683 916.776 217.063 916.776 217.063C916.776 217.063 915.977 219.026 916.243 221.428C915.292 221.771 914.741 222.8 914.741 222.8C914.741 222.8 915.578 223.619 916.586 223.657C917.081 226.02 918.45 227.64 918.45 227.64C918.45 227.64 919.249 225.677 918.983 223.276C919.934 222.933 920.486 221.904 920.486 221.904Z" fill="url(#paint41_radial)"/>
<path d="M1326.83 426.218C1326.83 426.218 1326 425.398 1324.99 425.36C1324.49 422.997 1323.12 421.377 1323.12 421.377C1323.12 421.377 1322.32 423.34 1322.59 425.741C1321.64 426.084 1321.09 427.113 1321.09 427.113C1321.09 427.113 1321.92 427.933 1322.93 427.971C1323.43 430.334 1324.8 431.954 1324.8 431.954C1324.8 431.954 1325.6 429.991 1325.33 427.59C1326.28 427.247 1326.83 426.218 1326.83 426.218Z" fill="url(#paint42_radial)"/>
<path d="M923.359 321.726C923.359 321.726 922.521 320.907 921.513 320.869C921.019 318.506 919.649 316.886 919.649 316.886C919.649 316.886 918.85 318.849 919.116 321.25C918.165 321.593 917.613 322.622 917.613 322.622C917.613 322.622 918.45 323.441 919.458 323.48C919.953 325.843 921.323 327.463 921.323 327.463C921.323 327.463 922.122 325.5 921.856 323.098C922.807 322.755 923.359 321.726 923.359 321.726Z" fill="url(#paint43_radial)"/>
<path d="M858.066 188.42C874.121 188.42 887.136 175.383 887.136 159.301C887.136 143.218 874.121 130.181 858.066 130.181C842.011 130.181 828.997 143.218 828.997 159.301C828.997 175.383 842.011 188.42 858.066 188.42Z" fill="url(#paint44_linear)"/>
<path d="M1424.16 232.081C1436.15 232.081 1445.87 222.345 1445.87 210.336C1445.87 198.327 1436.15 188.592 1424.16 188.592C1412.17 188.592 1402.45 198.327 1402.45 210.336C1402.45 222.345 1412.17 232.081 1424.16 232.081Z" fill="url(#paint45_linear)"/>
<path opacity="0.7" d="M966.24 231.528C971.294 231.528 975.391 227.424 975.391 222.361C975.391 217.299 971.294 213.195 966.24 213.195C961.186 213.195 957.089 217.299 957.089 222.361C957.089 227.424 961.186 231.528 966.24 231.528Z" fill="url(#paint46_linear)"/>
<path opacity="0.7" d="M1203.61 666.76C1208.66 666.76 1212.76 662.656 1212.76 657.593C1212.76 652.531 1208.66 648.427 1203.61 648.427C1198.56 648.427 1194.46 652.531 1194.46 657.593C1194.46 662.656 1198.56 666.76 1203.61 666.76Z" fill="url(#paint47_linear)"/>
</g>
<defs>
<radialGradient id="paint0_radial" cx="0" cy="0" r="1" gradientUnits="userSpaceOnUse" gradientTransform="translate(316.173 374.697) rotate(170.975) scale(12.7295 12.7504)">
<stop stop-color="#FE85FF" stop-opacity="0.7"/>
<stop offset="0.00785536" stop-color="#FC83FE" stop-opacity="0.6945"/>
<stop offset="0.1876" stop-color="#CA5BEB" stop-opacity="0.5687"/>
<stop offset="0.3656" stop-color="#A13BDB" stop-opacity="0.4441"/>
<stop offset="0.5385" stop-color="#8121CE" stop-opacity="0.323"/>
<stop offset="0.705" stop-color="#6A0FC5" stop-opacity="0.2065"/>
<stop offset="0.862" stop-color="#5D04C0" stop-opacity="0.0966"/>
<stop offset="1" stop-color="#5800BE" stop-opacity="0"/>
</radialGradient>
<radialGradient id="paint1_radial" cx="0" cy="0" r="1" gradientUnits="userSpaceOnUse" gradientTransform="translate(671.859 686.04) rotate(170.975) scale(11.3242 11.3432)">
<stop offset="2.00321e-05" stop-color="#3CDEFF" stop-opacity="0.7"/>
<stop offset="0.1542" stop-color="#43A4EE" stop-opacity="0.5921"/>
<stop offset="0.3083" stop-color="#4A72DF" stop-opacity="0.4842"/>
<stop offset="0.4599" stop-color="#4F49D3" stop-opacity="0.3781"/>
<stop offset="0.6071" stop-color="#5329CA" stop-opacity="0.275"/>
<stop offset="0.7488" stop-color="#5612C3" stop-opacity="0.1758"/>
<stop offset="0.8825" stop-color="#5705BF" stop-opacity="0.0822"/>
<stop offset="1" stop-color="#5800BE" stop-opacity="0"/>
</radialGradient>
<radialGradient id="paint2_radial" cx="0" cy="0" r="1" gradientUnits="userSpaceOnUse" gradientTransform="translate(399.994 527.601) rotate(170.975) scale(10.9096 10.9274)">
<stop offset="2.00321e-05" stop-color="#3CDEFF" stop-opacity="0.7"/>
<stop offset="0.1542" stop-color="#43A4EE" stop-opacity="0.5921"/>
<stop offset="0.3083" stop-color="#4A72DF" stop-opacity="0.4842"/>
<stop offset="0.4599" stop-color="#4F49D3" stop-opacity="0.3781"/>
<stop offset="0.6071" stop-color="#5329CA" stop-opacity="0.275"/>
<stop offset="0.7488" stop-color="#5612C3" stop-opacity="0.1758"/>
<stop offset="0.8825" stop-color="#5705BF" stop-opacity="0.0822"/>
<stop offset="1" stop-color="#5800BE" stop-opacity="0"/>
</radialGradient>
<radialGradient id="paint3_radial" cx="0" cy="0" r="1" gradientUnits="userSpaceOnUse" gradientTransform="translate(787.514 466.809) rotate(170.976) scale(10.9096 10.9274)">
<stop offset="2.00321e-05" stop-color="#3CDEFF" stop-opacity="0.7"/>
<stop offset="0.1542" stop-color="#43A4EE" stop-opacity="0.5921"/>
<stop offset="0.3083" stop-color="#4A72DF" stop-opacity="0.4842"/>
<stop offset="0.4599" stop-color="#4F49D3" stop-opacity="0.3781"/>
<stop offset="0.6071" stop-color="#5329CA" stop-opacity="0.275"/>
<stop offset="0.7488" stop-color="#5612C3" stop-opacity="0.1758"/>
<stop offset="0.8825" stop-color="#5705BF" stop-opacity="0.0822"/>
<stop offset="1" stop-color="#5800BE" stop-opacity="0"/>
</radialGradient>
<radialGradient id="paint4_radial" cx="0" cy="0" r="1" gradientUnits="userSpaceOnUse" gradientTransform="translate(381.15 262.489) rotate(170.976) scale(11.8718 11.8912)">
<stop stop-color="#FEFFFF" stop-opacity="0.7"/>
<stop offset="0.0716" stop-color="#E9DFF7" stop-opacity="0.6499"/>
<stop offset="0.2155" stop-color="#C3A5E8" stop-opacity="0.5491"/>
<stop offset="0.3593" stop-color="#A272DB" stop-opacity="0.4485"/>
<stop offset="0.4998" stop-color="#8849D1" stop-opacity="0.3502"/>
<stop offset="0.6362" stop-color="#7329C9" stop-opacity="0.2547"/>
<stop offset="0.7674" stop-color="#6412C3" stop-opacity="0.1628"/>
<stop offset="0.8912" stop-color="#5B05BF" stop-opacity="0.0761"/>
<stop offset="1" stop-color="#5800BE" stop-opacity="0"/>
</radialGradient>
<radialGradient id="paint5_radial" cx="0" cy="0" r="1" gradientUnits="userSpaceOnUse" gradientTransform="translate(784.641 366.986) rotate(170.976) scale(11.8718 11.8912)">
<stop stop-color="#FEFFFF" stop-opacity="0.7"/>
<stop offset="0.0716" stop-color="#E9DFF7" stop-opacity="0.6499"/>
<stop offset="0.2155" stop-color="#C3A5E8" stop-opacity="0.5491"/>
<stop offset="0.3593" stop-color="#A272DB" stop-opacity="0.4485"/>
<stop offset="0.4998" stop-color="#8849D1" stop-opacity="0.3502"/>
<stop offset="0.6362" stop-color="#7329C9" stop-opacity="0.2547"/>
<stop offset="0.7674" stop-color="#6412C3" stop-opacity="0.1628"/>
<stop offset="0.8912" stop-color="#5B05BF" stop-opacity="0.0761"/>
<stop offset="1" stop-color="#5800BE" stop-opacity="0"/>
</radialGradient>
<linearGradient id="paint6_linear" x1="814.353" y1="584.745" x2="885.167" y2="496.69" gradientUnits="userSpaceOnUse">
<stop offset="2.00321e-05" stop-color="#3C39FF" stop-opacity="0.7"/>
<stop offset="0.225" stop-color="#4624E7" stop-opacity="0.5425"/>
<stop offset="0.5036" stop-color="#5010D0" stop-opacity="0.3475"/>
<stop offset="0.7678" stop-color="#5604C3" stop-opacity="0.1626"/>
<stop offset="1" stop-color="#5800BE" stop-opacity="0"/>
</linearGradient>
<linearGradient id="paint7_linear" x1="247.125" y1="527.132" x2="291.051" y2="464.627" gradientUnits="userSpaceOnUse">
<stop stop-color="#FF54E8"/>
<stop offset="0.2771" stop-color="#F74AEC" stop-opacity="0.7955"/>
<stop offset="0.3746" stop-color="#F345EE" stop-opacity="0.7236"/>
<stop offset="0.7876" stop-color="#DF2BF9" stop-opacity="0.2458"/>
<stop offset="1" stop-color="#D31CFF" stop-opacity="0"/>
</linearGradient>
<linearGradient id="paint8_linear" x1="729.879" y1="479.65" x2="748.402" y2="453.294" gradientUnits="userSpaceOnUse">
<stop stop-color="#FFCCEE"/>
<stop offset="0.2621" stop-color="#C49BBB" stop-opacity="0.7376"/>
<stop offset="0.8636" stop-color="#30223E" stop-opacity="0.1352"/>
<stop offset="0.9987" stop-color="#0E0621" stop-opacity="0"/>
</linearGradient>
<linearGradient id="paint9_linear" x1="492.502" y1="44.4095" x2="511.024" y2="18.0527" gradientUnits="userSpaceOnUse">
<stop stop-color="#F8D2FF"/>
<stop offset="0.2694" stop-color="#BD9EC7" stop-opacity="0.7302"/>
<stop offset="0.8883" stop-color="#291E3B" stop-opacity="0.1105"/>
<stop offset="0.9987" stop-color="#0E0621" stop-opacity="0"/>
</linearGradient>
<radialGradient id="paint10_radial" cx="0" cy="0" r="1" gradientUnits="userSpaceOnUse" gradientTransform="translate(559.976 314.317) rotate(-9.02457) scale(12.7296 12.7505)">
<stop stop-color="#FE85FF" stop-opacity="0.7"/>
<stop offset="0.00785536" stop-color="#FC83FE" stop-opacity="0.6945"/>
<stop offset="0.1876" stop-color="#CA5BEB" stop-opacity="0.5687"/>
<stop offset="0.3656" stop-color="#A13BDB" stop-opacity="0.4441"/>
<stop offset="0.5385" stop-color="#8121CE" stop-opacity="0.323"/>
<stop offset="0.705" stop-color="#6A0FC5" stop-opacity="0.2065"/>
<stop offset="0.862" stop-color="#5D04C0" stop-opacity="0.0966"/>
<stop offset="1" stop-color="#5800BE" stop-opacity="0"/>
</radialGradient>
<radialGradient id="paint11_radial" cx="0" cy="0" r="1" gradientUnits="userSpaceOnUse" gradientTransform="translate(204.29 2.97416) rotate(-9.02458) scale(11.3245 11.3431)">
<stop offset="2.00321e-05" stop-color="#3CDEFF" stop-opacity="0.7"/>
<stop offset="0.1542" stop-color="#43A4EE" stop-opacity="0.5921"/>
<stop offset="0.3083" stop-color="#4A72DF" stop-opacity="0.4842"/>
<stop offset="0.4599" stop-color="#4F49D3" stop-opacity="0.3781"/>
<stop offset="0.6071" stop-color="#5329CA" stop-opacity="0.275"/>
<stop offset="0.7488" stop-color="#5612C3" stop-opacity="0.1758"/>
<stop offset="0.8825" stop-color="#5705BF" stop-opacity="0.0822"/>
<stop offset="1" stop-color="#5800BE" stop-opacity="0"/>
</radialGradient>
<radialGradient id="paint12_radial" cx="0" cy="0" r="1" gradientUnits="userSpaceOnUse" gradientTransform="translate(476.155 161.414) rotate(-9.02447) scale(10.9096 10.9274)">
<stop offset="2.00321e-05" stop-color="#3CDEFF" stop-opacity="0.7"/>
<stop offset="0.1542" stop-color="#43A4EE" stop-opacity="0.5921"/>
<stop offset="0.3083" stop-color="#4A72DF" stop-opacity="0.4842"/>
<stop offset="0.4599" stop-color="#4F49D3" stop-opacity="0.3781"/>
<stop offset="0.6071" stop-color="#5329CA" stop-opacity="0.275"/>
<stop offset="0.7488" stop-color="#5612C3" stop-opacity="0.1758"/>
<stop offset="0.8825" stop-color="#5705BF" stop-opacity="0.0822"/>
<stop offset="1" stop-color="#5800BE" stop-opacity="0"/>
</radialGradient>
<radialGradient id="paint13_radial" cx="0" cy="0" r="1" gradientUnits="userSpaceOnUse" gradientTransform="translate(88.6351 222.204) rotate(-9.02458) scale(10.9095 10.9275)">
<stop offset="2.00321e-05" stop-color="#3CDEFF" stop-opacity="0.7"/>
<stop offset="0.1542" stop-color="#43A4EE" stop-opacity="0.5921"/>
<stop offset="0.3083" stop-color="#4A72DF" stop-opacity="0.4842"/>
<stop offset="0.4599" stop-color="#4F49D3" stop-opacity="0.3781"/>
<stop offset="0.6071" stop-color="#5329CA" stop-opacity="0.275"/>
<stop offset="0.7488" stop-color="#5612C3" stop-opacity="0.1758"/>
<stop offset="0.8825" stop-color="#5705BF" stop-opacity="0.0822"/>
<stop offset="1" stop-color="#5800BE" stop-opacity="0"/>
</radialGradient>
<radialGradient id="paint14_radial" cx="0" cy="0" r="1" gradientUnits="userSpaceOnUse" gradientTransform="translate(494.999 426.525) rotate(-9.02461) scale(11.8717 11.8912)">
<stop stop-color="#FEFFFF" stop-opacity="0.7"/>
<stop offset="0.0716" stop-color="#E9DFF7" stop-opacity="0.6499"/>
<stop offset="0.2155" stop-color="#C3A5E8" stop-opacity="0.5491"/>
<stop offset="0.3593" stop-color="#A272DB" stop-opacity="0.4485"/>
<stop offset="0.4998" stop-color="#8849D1" stop-opacity="0.3502"/>
<stop offset="0.6362" stop-color="#7329C9" stop-opacity="0.2547"/>
<stop offset="0.7674" stop-color="#6412C3" stop-opacity="0.1628"/>
<stop offset="0.8912" stop-color="#5B05BF" stop-opacity="0.0761"/>
<stop offset="1" stop-color="#5800BE" stop-opacity="0"/>
</radialGradient>
<radialGradient id="paint15_radial" cx="0" cy="0" r="1" gradientUnits="userSpaceOnUse" gradientTransform="translate(91.508 322.029) rotate(-9.0245) scale(11.8717 11.8911)">
<stop stop-color="#FEFFFF" stop-opacity="0.7"/>
<stop offset="0.0716" stop-color="#E9DFF7" stop-opacity="0.6499"/>
<stop offset="0.2155" stop-color="#C3A5E8" stop-opacity="0.5491"/>
<stop offset="0.3593" stop-color="#A272DB" stop-opacity="0.4485"/>
<stop offset="0.4998" stop-color="#8849D1" stop-opacity="0.3502"/>
<stop offset="0.6362" stop-color="#7329C9" stop-opacity="0.2547"/>
<stop offset="0.7674" stop-color="#6412C3" stop-opacity="0.1628"/>
<stop offset="0.8912" stop-color="#5B05BF" stop-opacity="0.0761"/>
<stop offset="1" stop-color="#5800BE" stop-opacity="0"/>
</radialGradient>
<linearGradient id="paint16_linear" x1="51.0919" y1="131.723" x2="3.11939" y2="191.273" gradientUnits="userSpaceOnUse">
<stop offset="2.00321e-05" stop-color="#3C39FF" stop-opacity="0.7"/>
<stop offset="0.225" stop-color="#4624E7" stop-opacity="0.5425"/>
<stop offset="0.5036" stop-color="#5010D0" stop-opacity="0.3475"/>
<stop offset="0.7678" stop-color="#5604C3" stop-opacity="0.1626"/>
<stop offset="1" stop-color="#5800BE" stop-opacity="0"/>
</linearGradient>
<linearGradient id="paint17_linear" x1="629.023" y1="161.882" x2="585.098" y2="224.387" gradientUnits="userSpaceOnUse">
<stop stop-color="#FF54E8"/>
<stop offset="0.2771" stop-color="#F74AEC" stop-opacity="0.7955"/>
<stop offset="0.3746" stop-color="#F345EE" stop-opacity="0.7236"/>
<stop offset="0.7876" stop-color="#DF2BF9" stop-opacity="0.2458"/>
<stop offset="1" stop-color="#D31CFF" stop-opacity="0"/>
</linearGradient>
<linearGradient id="paint18_linear" x1="146.27" y1="209.363" x2="127.747" y2="235.72" gradientUnits="userSpaceOnUse">
<stop stop-color="#FFCCEE"/>
<stop offset="0.2621" stop-color="#C49BBB" stop-opacity="0.7376"/>
<stop offset="0.8636" stop-color="#30223E" stop-opacity="0.1352"/>
<stop offset="0.9987" stop-color="#0E0621" stop-opacity="0"/>
</linearGradient>
<linearGradient id="paint19_linear" x1="383.647" y1="644.605" x2="365.125" y2="670.961" gradientUnits="userSpaceOnUse">
<stop stop-color="#F8D2FF"/>
<stop offset="0.2694" stop-color="#BD9EC7" stop-opacity="0.7302"/>
<stop offset="0.8883" stop-color="#291E3B" stop-opacity="0.1105"/>
<stop offset="0.9987" stop-color="#0E0621" stop-opacity="0"/>
</linearGradient>
<radialGradient id="paint20_radial" cx="0" cy="0" r="1" gradientUnits="userSpaceOnUse" gradientTransform="translate(1145.18 374.694) rotate(170.975) scale(12.7294 12.7504)">
<stop stop-color="#FE85FF" stop-opacity="0.7"/>
<stop offset="0.00785536" stop-color="#FC83FE" stop-opacity="0.6945"/>
<stop offset="0.1876" stop-color="#CA5BEB" stop-opacity="0.5687"/>
<stop offset="0.3656" stop-color="#A13BDB" stop-opacity="0.4441"/>
<stop offset="0.5385" stop-color="#8121CE" stop-opacity="0.323"/>
<stop offset="0.705" stop-color="#6A0FC5" stop-opacity="0.2065"/>
<stop offset="0.862" stop-color="#5D04C0" stop-opacity="0.0966"/>
<stop offset="1" stop-color="#5800BE" stop-opacity="0"/>
</radialGradient>
<radialGradient id="paint21_radial" cx="0" cy="0" r="1" gradientUnits="userSpaceOnUse" gradientTransform="translate(1500.87 686.036) rotate(170.975) scale(11.3245 11.3432)">
<stop offset="2.00321e-05" stop-color="#3CDEFF" stop-opacity="0.7"/>
<stop offset="0.1542" stop-color="#43A4EE" stop-opacity="0.5921"/>
<stop offset="0.3083" stop-color="#4A72DF" stop-opacity="0.4842"/>
<stop offset="0.4599" stop-color="#4F49D3" stop-opacity="0.3781"/>
<stop offset="0.6071" stop-color="#5329CA" stop-opacity="0.275"/>
<stop offset="0.7488" stop-color="#5612C3" stop-opacity="0.1758"/>
<stop offset="0.8825" stop-color="#5705BF" stop-opacity="0.0822"/>
<stop offset="1" stop-color="#5800BE" stop-opacity="0"/>
</radialGradient>
<radialGradient id="paint22_radial" cx="0" cy="0" r="1" gradientUnits="userSpaceOnUse" gradientTransform="translate(1229 527.597) rotate(170.975) scale(10.909 10.9274)">
<stop offset="2.00321e-05" stop-color="#3CDEFF" stop-opacity="0.7"/>
<stop offset="0.1542" stop-color="#43A4EE" stop-opacity="0.5921"/>
<stop offset="0.3083" stop-color="#4A72DF" stop-opacity="0.4842"/>
<stop offset="0.4599" stop-color="#4F49D3" stop-opacity="0.3781"/>
<stop offset="0.6071" stop-color="#5329CA" stop-opacity="0.275"/>
<stop offset="0.7488" stop-color="#5612C3" stop-opacity="0.1758"/>
<stop offset="0.8825" stop-color="#5705BF" stop-opacity="0.0822"/>
<stop offset="1" stop-color="#5800BE" stop-opacity="0"/>
</radialGradient>
<radialGradient id="paint23_radial" cx="0" cy="0" r="1" gradientUnits="userSpaceOnUse" gradientTransform="translate(1616.52 466.806) rotate(170.975) scale(10.909 10.9274)">
<stop offset="2.00321e-05" stop-color="#3CDEFF" stop-opacity="0.7"/>
<stop offset="0.1542" stop-color="#43A4EE" stop-opacity="0.5921"/>
<stop offset="0.3083" stop-color="#4A72DF" stop-opacity="0.4842"/>
<stop offset="0.4599" stop-color="#4F49D3" stop-opacity="0.3781"/>
<stop offset="0.6071" stop-color="#5329CA" stop-opacity="0.275"/>
<stop offset="0.7488" stop-color="#5612C3" stop-opacity="0.1758"/>
<stop offset="0.8825" stop-color="#5705BF" stop-opacity="0.0822"/>
<stop offset="1" stop-color="#5800BE" stop-opacity="0"/>
</radialGradient>
<radialGradient id="paint24_radial" cx="0" cy="0" r="1" gradientUnits="userSpaceOnUse" gradientTransform="translate(1210.16 262.485) rotate(170.976) scale(11.8718 11.8912)">
<stop stop-color="#FEFFFF" stop-opacity="0.7"/>
<stop offset="0.0716" stop-color="#E9DFF7" stop-opacity="0.6499"/>
<stop offset="0.2155" stop-color="#C3A5E8" stop-opacity="0.5491"/>
<stop offset="0.3593" stop-color="#A272DB" stop-opacity="0.4485"/>
<stop offset="0.4998" stop-color="#8849D1" stop-opacity="0.3502"/>
<stop offset="0.6362" stop-color="#7329C9" stop-opacity="0.2547"/>
<stop offset="0.7674" stop-color="#6412C3" stop-opacity="0.1628"/>
<stop offset="0.8912" stop-color="#5B05BF" stop-opacity="0.0761"/>
<stop offset="1" stop-color="#5800BE" stop-opacity="0"/>
</radialGradient>
<radialGradient id="paint25_radial" cx="0" cy="0" r="1" gradientUnits="userSpaceOnUse" gradientTransform="translate(1613.65 366.982) rotate(170.975) scale(11.8716 11.8912)">
<stop stop-color="#FEFFFF" stop-opacity="0.7"/>
<stop offset="0.0716" stop-color="#E9DFF7" stop-opacity="0.6499"/>
<stop offset="0.2155" stop-color="#C3A5E8" stop-opacity="0.5491"/>
<stop offset="0.3593" stop-color="#A272DB" stop-opacity="0.4485"/>
<stop offset="0.4998" stop-color="#8849D1" stop-opacity="0.3502"/>
<stop offset="0.6362" stop-color="#7329C9" stop-opacity="0.2547"/>
<stop offset="0.7674" stop-color="#6412C3" stop-opacity="0.1628"/>
<stop offset="0.8912" stop-color="#5B05BF" stop-opacity="0.0761"/>
<stop offset="1" stop-color="#5800BE" stop-opacity="0"/>
</radialGradient>
<linearGradient id="paint26_linear" x1="1654.07" y1="557.288" x2="1702.04" y2="497.738" gradientUnits="userSpaceOnUse">
<stop offset="2.00321e-05" stop-color="#3C39FF" stop-opacity="0.7"/>
<stop offset="0.225" stop-color="#4624E7" stop-opacity="0.5425"/>
<stop offset="0.5036" stop-color="#5010D0" stop-opacity="0.3475"/>
<stop offset="0.7678" stop-color="#5604C3" stop-opacity="0.1626"/>
<stop offset="1" stop-color="#5800BE" stop-opacity="0"/>
</linearGradient>
<linearGradient id="paint27_linear" x1="1076.14" y1="527.128" x2="1120.06" y2="464.624" gradientUnits="userSpaceOnUse">
<stop stop-color="#FF54E8"/>
<stop offset="0.2771" stop-color="#F74AEC" stop-opacity="0.7955"/>
<stop offset="0.3746" stop-color="#F345EE" stop-opacity="0.7236"/>
<stop offset="0.7876" stop-color="#DF2BF9" stop-opacity="0.2458"/>
<stop offset="1" stop-color="#D31CFF" stop-opacity="0"/>
</linearGradient>
<linearGradient id="paint28_linear" x1="1558.89" y1="479.647" x2="1577.41" y2="453.29" gradientUnits="userSpaceOnUse">
<stop stop-color="#FFCCEE"/>
<stop offset="0.2621" stop-color="#C49BBB" stop-opacity="0.7376"/>
<stop offset="0.8636" stop-color="#30223E" stop-opacity="0.1352"/>
<stop offset="0.9987" stop-color="#0E0621" stop-opacity="0"/>
</linearGradient>
<linearGradient id="paint29_linear" x1="1321.51" y1="44.4057" x2="1340.03" y2="18.049" gradientUnits="userSpaceOnUse">
<stop stop-color="#F8D2FF"/>
<stop offset="0.2694" stop-color="#BD9EC7" stop-opacity="0.7302"/>
<stop offset="0.8883" stop-color="#291E3B" stop-opacity="0.1105"/>
<stop offset="0.9987" stop-color="#0E0621" stop-opacity="0"/>
</linearGradient>
<radialGradient id="paint30_radial" cx="0" cy="0" r="1" gradientUnits="userSpaceOnUse" gradientTransform="translate(1359.99 374.692) rotate(170.976) scale(12.7296 12.7504)">
<stop stop-color="#FE85FF" stop-opacity="0.7"/>
<stop offset="0.00785536" stop-color="#FC83FE" stop-opacity="0.6945"/>
<stop offset="0.1876" stop-color="#CA5BEB" stop-opacity="0.5687"/>
<stop offset="0.3656" stop-color="#A13BDB" stop-opacity="0.4441"/>
<stop offset="0.5385" stop-color="#8121CE" stop-opacity="0.323"/>
<stop offset="0.705" stop-color="#6A0FC5" stop-opacity="0.2065"/>
<stop offset="0.862" stop-color="#5D04C0" stop-opacity="0.0966"/>
<stop offset="1" stop-color="#5800BE" stop-opacity="0"/>
</radialGradient>
<radialGradient id="paint31_radial" cx="0" cy="0" r="1" gradientUnits="userSpaceOnUse" gradientTransform="translate(1715.68 686.036) rotate(170.975) scale(11.3245 11.3432)">
<stop offset="2.00321e-05" stop-color="#3CDEFF" stop-opacity="0.7"/>
<stop offset="0.1542" stop-color="#43A4EE" stop-opacity="0.5921"/>
<stop offset="0.3083" stop-color="#4A72DF" stop-opacity="0.4842"/>
<stop offset="0.4599" stop-color="#4F49D3" stop-opacity="0.3781"/>
<stop offset="0.6071" stop-color="#5329CA" stop-opacity="0.275"/>
<stop offset="0.7488" stop-color="#5612C3" stop-opacity="0.1758"/>
<stop offset="0.8825" stop-color="#5705BF" stop-opacity="0.0822"/>
<stop offset="1" stop-color="#5800BE" stop-opacity="0"/>
</radialGradient>
<radialGradient id="paint32_radial" cx="0" cy="0" r="1" gradientUnits="userSpaceOnUse" gradientTransform="translate(1443.81 527.596) rotate(170.975) scale(10.9094 10.9274)">
<stop offset="2.00321e-05" stop-color="#3CDEFF" stop-opacity="0.7"/>
<stop offset="0.1542" stop-color="#43A4EE" stop-opacity="0.5921"/>
<stop offset="0.3083" stop-color="#4A72DF" stop-opacity="0.4842"/>
<stop offset="0.4599" stop-color="#4F49D3" stop-opacity="0.3781"/>
<stop offset="0.6071" stop-color="#5329CA" stop-opacity="0.275"/>
<stop offset="0.7488" stop-color="#5612C3" stop-opacity="0.1758"/>
<stop offset="0.8825" stop-color="#5705BF" stop-opacity="0.0822"/>
<stop offset="1" stop-color="#5800BE" stop-opacity="0"/>
</radialGradient>
<radialGradient id="paint33_radial" cx="0" cy="0" r="1" gradientUnits="userSpaceOnUse" gradientTransform="translate(1831.33 466.804) rotate(170.975) scale(10.9092 10.9274)">
<stop offset="2.00321e-05" stop-color="#3CDEFF" stop-opacity="0.7"/>
<stop offset="0.1542" stop-color="#43A4EE" stop-opacity="0.5921"/>
<stop offset="0.3083" stop-color="#4A72DF" stop-opacity="0.4842"/>
<stop offset="0.4599" stop-color="#4F49D3" stop-opacity="0.3781"/>
<stop offset="0.6071" stop-color="#5329CA" stop-opacity="0.275"/>
<stop offset="0.7488" stop-color="#5612C3" stop-opacity="0.1758"/>
<stop offset="0.8825" stop-color="#5705BF" stop-opacity="0.0822"/>
<stop offset="1" stop-color="#5800BE" stop-opacity="0"/>
</radialGradient>
<radialGradient id="paint34_radial" cx="0" cy="0" r="1" gradientUnits="userSpaceOnUse" gradientTransform="translate(1424.97 262.484) rotate(170.975) scale(11.8713 11.8912)">
<stop stop-color="#FEFFFF" stop-opacity="0.7"/>
<stop offset="0.0716" stop-color="#E9DFF7" stop-opacity="0.6499"/>
<stop offset="0.2155" stop-color="#C3A5E8" stop-opacity="0.5491"/>
<stop offset="0.3593" stop-color="#A272DB" stop-opacity="0.4485"/>
<stop offset="0.4998" stop-color="#8849D1" stop-opacity="0.3502"/>
<stop offset="0.6362" stop-color="#7329C9" stop-opacity="0.2547"/>
<stop offset="0.7674" stop-color="#6412C3" stop-opacity="0.1628"/>
<stop offset="0.8912" stop-color="#5B05BF" stop-opacity="0.0761"/>
<stop offset="1" stop-color="#5800BE" stop-opacity="0"/>
</radialGradient>
<radialGradient id="paint35_radial" cx="0" cy="0" r="1" gradientUnits="userSpaceOnUse" gradientTransform="translate(1828.46 366.981) rotate(170.976) scale(11.8721 11.8912)">
<stop stop-color="#FEFFFF" stop-opacity="0.7"/>
<stop offset="0.0716" stop-color="#E9DFF7" stop-opacity="0.6499"/>
<stop offset="0.2155" stop-color="#C3A5E8" stop-opacity="0.5491"/>
<stop offset="0.3593" stop-color="#A272DB" stop-opacity="0.4485"/>
<stop offset="0.4998" stop-color="#8849D1" stop-opacity="0.3502"/>
<stop offset="0.6362" stop-color="#7329C9" stop-opacity="0.2547"/>
<stop offset="0.7674" stop-color="#6412C3" stop-opacity="0.1628"/>
<stop offset="0.8912" stop-color="#5B05BF" stop-opacity="0.0761"/>
<stop offset="1" stop-color="#5800BE" stop-opacity="0"/>
</radialGradient>
<linearGradient id="paint36_linear" x1="1773.7" y1="479.646" x2="1792.22" y2="453.289" gradientUnits="userSpaceOnUse">
<stop stop-color="#FFCCEE"/>
<stop offset="0.2621" stop-color="#C49BBB" stop-opacity="0.7376"/>
<stop offset="0.8636" stop-color="#30223E" stop-opacity="0.1352"/>
<stop offset="0.9987" stop-color="#0E0621" stop-opacity="0"/>
</linearGradient>
<linearGradient id="paint37_linear" x1="1536.32" y1="44.4048" x2="1554.84" y2="18.0477" gradientUnits="userSpaceOnUse">
<stop stop-color="#F8D2FF"/>
<stop offset="0.2694" stop-color="#BD9EC7" stop-opacity="0.7302"/>
<stop offset="0.8883" stop-color="#291E3B" stop-opacity="0.1105"/>
<stop offset="0.9987" stop-color="#0E0621" stop-opacity="0"/>
</linearGradient>
<radialGradient id="paint38_radial" cx="0" cy="0" r="1" gradientUnits="userSpaceOnUse" gradientTransform="translate(1388.99 314.313) rotate(-9.02441) scale(12.7298 12.7505)">
<stop stop-color="#FE85FF" stop-opacity="0.7"/>
<stop offset="0.00785536" stop-color="#FC83FE" stop-opacity="0.6945"/>
<stop offset="0.1876" stop-color="#CA5BEB" stop-opacity="0.5687"/>
<stop offset="0.3656" stop-color="#A13BDB" stop-opacity="0.4441"/>
<stop offset="0.5385" stop-color="#8121CE" stop-opacity="0.323"/>
<stop offset="0.705" stop-color="#6A0FC5" stop-opacity="0.2065"/>
<stop offset="0.862" stop-color="#5D04C0" stop-opacity="0.0966"/>
<stop offset="1" stop-color="#5800BE" stop-opacity="0"/>
</radialGradient>
<radialGradient id="paint39_radial" cx="0" cy="0" r="1" gradientUnits="userSpaceOnUse" gradientTransform="translate(1033.3 2.97016) rotate(-9.02458) scale(11.3245 11.3431)">
<stop offset="2.00321e-05" stop-color="#3CDEFF" stop-opacity="0.7"/>
<stop offset="0.1542" stop-color="#43A4EE" stop-opacity="0.5921"/>
<stop offset="0.3083" stop-color="#4A72DF" stop-opacity="0.4842"/>
<stop offset="0.4599" stop-color="#4F49D3" stop-opacity="0.3781"/>
<stop offset="0.6071" stop-color="#5329CA" stop-opacity="0.275"/>
<stop offset="0.7488" stop-color="#5612C3" stop-opacity="0.1758"/>
<stop offset="0.8825" stop-color="#5705BF" stop-opacity="0.0822"/>
<stop offset="1" stop-color="#5800BE" stop-opacity="0"/>
</radialGradient>
<radialGradient id="paint40_radial" cx="0" cy="0" r="1" gradientUnits="userSpaceOnUse" gradientTransform="translate(1305.16 161.41) rotate(-9.02442) scale(10.9097 10.9274)">
<stop offset="2.00321e-05" stop-color="#3CDEFF" stop-opacity="0.7"/>
<stop offset="0.1542" stop-color="#43A4EE" stop-opacity="0.5921"/>
<stop offset="0.3083" stop-color="#4A72DF" stop-opacity="0.4842"/>
<stop offset="0.4599" stop-color="#4F49D3" stop-opacity="0.3781"/>
<stop offset="0.6071" stop-color="#5329CA" stop-opacity="0.275"/>
<stop offset="0.7488" stop-color="#5612C3" stop-opacity="0.1758"/>
<stop offset="0.8825" stop-color="#5705BF" stop-opacity="0.0822"/>
<stop offset="1" stop-color="#5800BE" stop-opacity="0"/>
</radialGradient>
<radialGradient id="paint41_radial" cx="0" cy="0" r="1" gradientUnits="userSpaceOnUse" gradientTransform="translate(917.645 222.201) rotate(-9.02455) scale(10.9096 10.9275)">
<stop offset="2.00321e-05" stop-color="#3CDEFF" stop-opacity="0.7"/>
<stop offset="0.1542" stop-color="#43A4EE" stop-opacity="0.5921"/>
<stop offset="0.3083" stop-color="#4A72DF" stop-opacity="0.4842"/>
<stop offset="0.4599" stop-color="#4F49D3" stop-opacity="0.3781"/>
<stop offset="0.6071" stop-color="#5329CA" stop-opacity="0.275"/>
<stop offset="0.7488" stop-color="#5612C3" stop-opacity="0.1758"/>
<stop offset="0.8825" stop-color="#5705BF" stop-opacity="0.0822"/>
<stop offset="1" stop-color="#5800BE" stop-opacity="0"/>
</radialGradient>
<radialGradient id="paint42_radial" cx="0" cy="0" r="1" gradientUnits="userSpaceOnUse" gradientTransform="translate(1324.01 426.521) rotate(-9.02391) scale(11.8726 11.8912)">
<stop stop-color="#FEFFFF" stop-opacity="0.7"/>
<stop offset="0.0716" stop-color="#E9DFF7" stop-opacity="0.6499"/>
<stop offset="0.2155" stop-color="#C3A5E8" stop-opacity="0.5491"/>
<stop offset="0.3593" stop-color="#A272DB" stop-opacity="0.4485"/>
<stop offset="0.4998" stop-color="#8849D1" stop-opacity="0.3502"/>
<stop offset="0.6362" stop-color="#7329C9" stop-opacity="0.2547"/>
<stop offset="0.7674" stop-color="#6412C3" stop-opacity="0.1628"/>
<stop offset="0.8912" stop-color="#5B05BF" stop-opacity="0.0761"/>
<stop offset="1" stop-color="#5800BE" stop-opacity="0"/>
</radialGradient>
<radialGradient id="paint43_radial" cx="0" cy="0" r="1" gradientUnits="userSpaceOnUse" gradientTransform="translate(920.518 322.025) rotate(-9.02451) scale(11.8717 11.8911)">
<stop stop-color="#FEFFFF" stop-opacity="0.7"/>
<stop offset="0.0716" stop-color="#E9DFF7" stop-opacity="0.6499"/>
<stop offset="0.2155" stop-color="#C3A5E8" stop-opacity="0.5491"/>
<stop offset="0.3593" stop-color="#A272DB" stop-opacity="0.4485"/>
<stop offset="0.4998" stop-color="#8849D1" stop-opacity="0.3502"/>
<stop offset="0.6362" stop-color="#7329C9" stop-opacity="0.2547"/>
<stop offset="0.7674" stop-color="#6412C3" stop-opacity="0.1628"/>
<stop offset="0.8912" stop-color="#5B05BF" stop-opacity="0.0761"/>
<stop offset="1" stop-color="#5800BE" stop-opacity="0"/>
</radialGradient>
<linearGradient id="paint44_linear" x1="880.102" y1="131.719" x2="832.129" y2="191.269" gradientUnits="userSpaceOnUse">
<stop offset="2.00321e-05" stop-color="#3C39FF" stop-opacity="0.7"/>
<stop offset="0.225" stop-color="#4624E7" stop-opacity="0.5425"/>
<stop offset="0.5036" stop-color="#5010D0" stop-opacity="0.3475"/>
<stop offset="0.7678" stop-color="#5604C3" stop-opacity="0.1626"/>
<stop offset="1" stop-color="#5800BE" stop-opacity="0"/>
</linearGradient>
<linearGradient id="paint45_linear" x1="1458.03" y1="161.878" x2="1414.11" y2="224.383" gradientUnits="userSpaceOnUse">
<stop stop-color="#FF54E8"/>
<stop offset="0.2771" stop-color="#F74AEC" stop-opacity="0.7955"/>
<stop offset="0.3746" stop-color="#F345EE" stop-opacity="0.7236"/>
<stop offset="0.7876" stop-color="#DF2BF9" stop-opacity="0.2458"/>
<stop offset="1" stop-color="#D31CFF" stop-opacity="0"/>
</linearGradient>
<linearGradient id="paint46_linear" x1="975.28" y1="209.359" x2="956.757" y2="235.717" gradientUnits="userSpaceOnUse">
<stop stop-color="#FFCCEE"/>
<stop offset="0.2621" stop-color="#C49BBB" stop-opacity="0.7376"/>
<stop offset="0.8636" stop-color="#30223E" stop-opacity="0.1352"/>
<stop offset="0.9987" stop-color="#0E0621" stop-opacity="0"/>
</linearGradient>
<linearGradient id="paint47_linear" x1="1212.66" y1="644.601" x2="1194.13" y2="670.958" gradientUnits="userSpaceOnUse">
<stop stop-color="#F8D2FF"/>
<stop offset="0.2694" stop-color="#BD9EC7" stop-opacity="0.7302"/>
<stop offset="0.8883" stop-color="#291E3B" stop-opacity="0.1105"/>
<stop offset="0.9987" stop-color="#0E0621" stop-opacity="0"/>
</linearGradient>
</defs>
</svg>
