<svg width="44" height="71" viewBox="0 0 44 71" fill="none" xmlns="http://www.w3.org/2000/svg">
<path d="M31.08 33.48C34.792 34.696 37.704 36.712 39.816 39.528C41.992 42.344 43.08 45.8 43.08 49.896C43.08 56.36 40.904 61.384 36.552 64.968C32.264 68.552 26.472 70.344 19.176 70.344C15.464 70.344 11.944 69.928 8.616 69.096C5.352 68.264 2.568 67.24 0.264 66.024L3.24 55.656C8.744 58.408 14.056 59.784 19.176 59.784C22.76 59.784 25.576 58.952 27.624 57.288C29.736 55.624 30.792 53.16 30.792 49.896C30.792 43.112 26.664 39.72 18.408 39.72H11.592V28.2H18.312C21.768 28.2 24.392 27.432 26.184 25.896C28.04 24.296 28.968 22.056 28.968 19.176C28.968 16.68 28.104 14.696 26.376 13.224C24.712 11.752 22.312 11.016 19.176 11.016C16.616 11.016 14.12 11.4 11.688 12.168C9.32 12.936 6.856 14.056 4.296 15.528L2.472 4.68C7.848 1.864 13.832 0.455996 20.424 0.455996C26.824 0.455996 31.784 2.056 35.304 5.256C38.888 8.392 40.68 12.52 40.68 17.64C40.68 21.288 39.848 24.488 38.184 27.24C36.52 29.928 34.152 32.008 31.08 33.48Z" fill="url(#paint0_linear)"/>
<defs>
<linearGradient id="paint0_linear" x1="23" y1="144.46" x2="23" y2="3.08289" gradientUnits="userSpaceOnUse">
<stop stop-color="#3620C2"/>
<stop offset="1" stop-color="#F919EE"/>
</linearGradient>
</defs>
</svg>
