<svg width="175" height="224" viewBox="0 0 175 224" fill="none" xmlns="http://www.w3.org/2000/svg">
<g opacity="0.81">
<circle cx="44.7966" cy="178.768" r="44.7966" fill="url(#paint0_linear)"/>
<circle r="12.5598" transform="matrix(1 0 0 -1 133.134 104.665)" fill="url(#paint1_linear)"/>
<circle r="1.25598" transform="matrix(1 0 0 -1 61.5431 117.643)" fill="#39FFF3"/>
<circle r="1.25598" transform="matrix(1 0 0 -1 90.0118 1.25598)" fill="white"/>
<circle r="1.25598" transform="matrix(1 0 0 -1 126.017 51.4955)" fill="#39FFF3"/>
<circle r="1.25598" transform="matrix(1 0 0 -1 136.902 191.328)" fill="#39FFF3"/>
<circle r="1.25598" transform="matrix(1 0 0 -1 114.294 141.926)" fill="white"/>
<circle r="1.25598" transform="matrix(1 0 0 -1 173.744 103.409)" fill="#4A30EB"/>
<circle r="1.25598" transform="matrix(1 0 0 -1 16.3278 93.3612)" fill="#D130EB"/>
<circle r="1.25598" transform="matrix(1 0 0 -1 12.1412 32.2367)" fill="#39FFF3"/>
<circle r="1.25598" transform="matrix(1 0 0 -1 28.8876 2.93054)" fill="#4A30EB"/>
<circle cx="59.4498" cy="50.2391" r="19.2584" fill="url(#paint2_linear)"/>
</g>
<defs>
<linearGradient id="paint0_linear" x1="152.392" y1="19.677" x2="5.02392" y2="204.306" gradientUnits="userSpaceOnUse">
<stop stop-color="#4A30EB"/>
<stop offset="1" stop-color="#4A30EB" stop-opacity="0"/>
</linearGradient>
<linearGradient id="paint1_linear" x1="12.4525" y1="-20.5036" x2="12.4525" y2="25.1196" gradientUnits="userSpaceOnUse">
<stop stop-color="#39FFF3"/>
<stop offset="1" stop-color="#39FFF3" stop-opacity="0"/>
</linearGradient>
<linearGradient id="paint2_linear" x1="59.2852" y1="-0.458169" x2="59.2852" y2="69.4975" gradientUnits="userSpaceOnUse">
<stop stop-color="#D130EB"/>
<stop offset="1" stop-color="#D130EB" stop-opacity="0"/>
</linearGradient>
</defs>
</svg>
