<svg width="675" height="143" viewBox="0 0 675 143" fill="none" xmlns="http://www.w3.org/2000/svg">
<path d="M28.672 25.056H0.16V7.19999H75.616V25.056H47.104V108H28.672V25.056ZM121.671 34.848C130.791 34.848 137.559 37.824 141.975 43.776C146.487 49.632 148.743 57.696 148.743 67.968V108H130.887V69.264C130.887 62.448 129.783 57.456 127.575 54.288C125.367 51.12 121.863 49.536 117.063 49.536C111.399 49.536 106.743 51.6 103.095 55.728V108H85.2393V-8.58307e-06H103.095V40.608C105.975 38.784 108.903 37.392 111.879 36.432C114.855 35.376 118.119 34.848 121.671 34.848ZM180.248 109.44C174.296 109.44 169.304 107.52 165.272 103.68C161.336 99.744 159.368 94.464 159.368 87.84C159.368 81.6 161.624 76.608 166.136 72.864C170.648 69.024 175.976 66.336 182.12 64.8C188.264 63.168 194.168 62.256 199.832 62.064C199.64 57.84 198.536 54.816 196.52 52.992C194.6 51.168 191.384 50.256 186.872 50.256C183.704 50.256 180.584 50.688 177.512 51.552C174.536 52.416 171.08 53.808 167.144 55.728L165.56 41.184C174.296 36.96 183.032 34.848 191.768 34.848C200.216 34.848 206.648 37.152 211.064 41.76C215.576 46.368 217.832 53.712 217.832 63.792V83.232C217.832 86.88 217.976 89.52 218.264 91.152C218.648 92.688 219.224 93.696 219.992 94.176C220.856 94.56 222.248 94.752 224.168 94.752H226.472L224.888 109.44H218.408C214.472 109.44 211.16 108.72 208.472 107.28C205.784 105.744 203.72 103.68 202.28 101.088C199.976 103.68 196.808 105.744 192.776 107.28C188.84 108.72 184.664 109.44 180.248 109.44ZM187.736 95.76C189.56 95.76 191.624 95.328 193.928 94.464C196.232 93.504 198.248 92.208 199.976 90.576V74.16C194.216 74.448 189.128 75.696 184.712 77.904C180.296 80.112 178.088 83.184 178.088 87.12C178.088 90.096 178.856 92.304 180.392 93.744C181.928 95.088 184.376 95.76 187.736 95.76ZM272.703 34.848C281.631 34.848 288.399 37.824 293.007 43.776C297.615 49.728 299.919 57.744 299.919 67.824V108H282.063V69.264C282.063 62.544 280.911 57.6 278.607 54.432C276.399 51.168 272.799 49.536 267.807 49.536C262.335 49.536 257.823 51.6 254.271 55.728V108H236.415V36H253.119L253.407 41.04C259.455 36.912 265.887 34.848 272.703 34.848ZM315.724 -8.58307e-06H333.58V65.52L355.9 36H376.06L349.852 70.56L376.636 108H356.476L333.58 76.032V108H315.724V-8.58307e-06ZM439.846 103.248L409.894 36H429.766L448.198 82.368L466.918 36H486.79L441.718 142.848H423.862L439.846 103.248ZM526.587 109.44C519.003 109.44 512.427 107.76 506.859 104.4C501.291 101.04 497.019 96.528 494.043 90.864C491.067 85.2 489.579 78.96 489.579 72.144C489.579 65.328 491.067 59.04 494.043 53.28C497.019 47.52 501.291 42.96 506.859 39.6C512.427 36.24 519.003 34.56 526.587 34.56C534.171 34.56 540.747 36.24 546.315 39.6C551.883 42.96 556.155 47.52 559.131 53.28C562.107 59.04 563.595 65.328 563.595 72.144C563.595 78.96 562.107 85.2 559.131 90.864C556.155 96.528 551.883 101.04 546.315 104.4C540.747 107.76 534.171 109.44 526.587 109.44ZM526.587 94.752C532.443 94.752 537.003 92.688 540.267 88.56C543.627 84.432 545.307 78.96 545.307 72.144C545.307 65.232 543.627 59.712 540.267 55.584C537.003 51.36 532.443 49.248 526.587 49.248C520.731 49.248 516.123 51.36 512.763 55.584C509.499 59.712 507.867 65.232 507.867 72.144C507.867 78.96 509.499 84.432 512.763 88.56C516.123 92.688 520.731 94.752 526.587 94.752ZM638.808 36V108H622.104L621.816 103.68C619.608 105.312 617.064 106.704 614.184 107.856C611.304 108.912 608.52 109.44 605.832 109.44C595.176 109.44 587.4 106.368 582.504 100.224C577.704 94.08 575.304 85.584 575.304 74.736V36H593.16V74.736C593.16 81.456 594.264 86.448 596.472 89.712C598.776 92.88 602.424 94.464 607.416 94.464C612.984 94.464 617.496 92.448 620.952 88.416V36H638.808ZM657.781 74.016L656.197 7.19999H674.053L672.469 74.016V78.192H657.781V74.016ZM655.765 88.416H674.485V108H655.765V88.416Z" fill="url(#paint0_linear)"/>
<defs>
<linearGradient id="paint0_linear" x1="341" y1="221" x2="341" y2="9.5" gradientUnits="userSpaceOnUse">
<stop offset="0.59408" stop-color="#4A30EB"/>
<stop offset="1" stop-color="#D130EB"/>
</linearGradient>
</defs>
</svg>
